<?xml version="1.0" standalone="no"?>
<!DOCTYPE svg PUBLIC "-//W3C//DTD SVG 20010904//EN"
 "http://www.w3.org/TR/2001/REC-SVG-20010904/DTD/svg10.dtd">
<svg version="1.0" xmlns="http://www.w3.org/2000/svg"
 width="256.000000pt" height="212.000000pt" viewBox="0 0 256.000000 212.000000"
 preserveAspectRatio="xMidYMid meet">

<g transform="translate(0.000000,212.000000) scale(0.100000,-0.100000)"
fill="#818cf8" stroke="none">
<path d="M1242 2100 c-21 -13 -35 -31 -39 -50 -5 -26 -10 -30 -40 -30 -48 0
-88 -23 -107 -64 -24 -51 -20 -79 18 -129 41 -53 66 -100 66 -122 0 -8 8 -15
18 -15 9 0 35 -12 57 -25 56 -35 71 -32 85 13 6 20 19 57 28 82 14 40 16 43
22 21 3 -14 10 -26 15 -28 11 -3 60 75 60 96 0 8 15 21 32 28 31 12 33 12 30
-10 -2 -19 2 -22 26 -19 16 2 27 -2 27 -9 0 -7 2 -10 5 -8 2 3 0 20 -5 38 -8
28 -6 38 10 59 13 16 20 40 20 69 0 38 -5 50 -34 79 -26 26 -43 34 -69 34 -43
0 -84 -31 -96 -73 -5 -18 -10 -24 -10 -14 -1 10 4 28 10 39 10 18 8 25 -11 40
-29 24 -77 23 -118 -2z"/>
<path d="M1522 1803 c-28 -12 -32 -16 -21 -29 10 -13 15 -12 36 7 15 15 23 18
23 9 0 -7 3 -11 6 -7 3 3 2 12 -3 20 -7 12 -13 12 -41 0z"/>
<path d="M1423 1756 c-35 -23 -42 -36 -19 -36 28 0 66 20 66 34 0 24 -13 25
-47 2z"/>
<path d="M1588 1734 c6 -11 19 -27 28 -35 10 -8 30 -32 46 -53 15 -21 28 -35
28 -29 0 5 -23 36 -51 69 -64 74 -64 73 -51 48z"/>
<path d="M1066 1668 c-26 -37 -20 -76 18 -114 19 -19 40 -34 48 -34 7 0 -1 9
-19 20 -53 32 -68 84 -37 128 8 12 13 22 10 22 -3 0 -12 -10 -20 -22z"/>
<path d="M1556 1674 c-18 -17 -21 -44 -6 -44 6 0 10 6 10 14 0 7 10 21 23 29
18 13 19 16 5 16 -9 1 -24 -6 -32 -15z"/>
<path d="M1123 1633 c9 -2 25 -2 35 0 9 3 1 5 -18 5 -19 0 -27 -2 -17 -5z"/>
<path d="M1195 1610 c10 -11 20 -20 23 -20 3 0 -3 9 -13 20 -10 11 -20 20 -23
20 -3 0 3 -9 13 -20z"/>
<path d="M1691 1585 c-2 -34 -39 -85 -76 -102 -19 -9 -35 -23 -35 -30 0 -7 -5
-13 -12 -13 -6 0 -9 -2 -6 -5 8 -8 38 6 33 16 -7 11 28 29 58 29 13 0 36 -9
51 -21 14 -11 26 -16 26 -11 0 6 -18 19 -40 29 -29 15 -36 23 -28 31 7 7 20
12 31 12 10 0 25 7 33 15 9 8 11 15 5 15 -5 0 -13 -4 -16 -10 -3 -5 -13 -10
-21 -10 -12 0 -12 4 -4 21 6 11 9 28 7 37 -4 14 -5 13 -6 -3z"/>
<path d="M1798 1529 c25 -13 61 -45 89 -80 25 -33 48 -59 51 -59 5 0 1 6 -52
72 -39 48 -92 88 -117 88 -8 0 5 -10 29 -21z"/>
<path d="M1173 1513 c15 -2 37 -2 50 0 12 2 0 4 -28 4 -27 0 -38 -2 -22 -4z"/>
<path d="M1753 1500 c14 -11 29 -20 34 -20 10 1 -39 39 -51 40 -5 0 3 -9 17
-20z"/>
<path d="M1212 1470 c0 -14 2 -19 5 -12 2 6 2 18 0 25 -3 6 -5 1 -5 -13z"/>
<path d="M1377 1474 c-20 -21 45 -92 92 -100 20 -3 42 -13 49 -22 16 -20 14
-9 -6 53 -17 49 -18 50 -64 57 -26 3 -51 9 -56 12 -5 3 -12 3 -15 0z"/>
<path d="M1533 1453 c9 -2 23 -2 30 0 6 3 -1 5 -18 5 -16 0 -22 -2 -12 -5z"/>
<path d="M1202 1420 c0 -14 2 -19 5 -12 2 6 2 18 0 25 -3 6 -5 1 -5 -13z"/>
<path d="M1611 1436 c10 -9 69 -36 69 -32 0 6 -55 36 -66 36 -4 0 -5 -2 -3 -4z"/>
<path d="M1191 1374 c0 -11 3 -14 6 -6 3 7 2 16 -1 19 -3 4 -6 -2 -5 -13z"/>
<path d="M1552 1370 c0 -14 2 -19 5 -12 2 6 2 18 0 25 -3 6 -5 1 -5 -13z"/>
<path d="M2020 1260 c44 -66 83 -120 85 -120 3 0 -31 54 -75 120 -44 66 -83
120 -85 120 -3 0 31 -54 75 -120z"/>
<path d="M854 1330 c-132 -34 -318 -143 -504 -294 -101 -82 -338 -314 -346
-338 -10 -32 14 -73 57 -99 22 -13 47 -30 55 -37 12 -11 14 -11 14 0 0 19 28
110 38 126 7 10 45 -1 168 -48 165 -64 269 -97 342 -110 l43 -7 53 86 c29 47
58 97 65 109 7 13 15 21 18 19 2 -3 -23 -51 -57 -107 -34 -56 -60 -103 -58
-104 2 -1 68 -10 148 -20 350 -43 588 -117 775 -241 89 -59 165 -136 165 -166
0 -30 -20 -22 -62 26 -22 24 -54 54 -71 66 -18 12 -8 0 21 -26 76 -68 101
-125 55 -125 -9 0 -14 -3 -10 -6 9 -10 47 6 47 21 0 7 7 15 15 19 8 3 15 15
15 26 0 20 4 21 124 18 l124 -3 -45 48 c-86 92 -130 219 -188 542 -20 110 -49
237 -64 283 -22 67 -25 82 -12 77 9 -3 -1 8 -22 25 -24 21 -52 62 -80 119 -25
50 -48 86 -55 83 -6 -2 -22 8 -34 21 l-23 25 0 -123 c0 -107 -2 -126 -19 -144
-40 -44 -107 -15 -142 62 -13 29 -14 21 -8 -104 5 -113 4 -141 -10 -166 -8
-17 -23 -33 -32 -37 -27 -10 -27 0 1 18 25 16 25 17 25 169 -1 145 -2 150 -16
117 -67 -155 -191 -101 -211 93 -7 72 -23 89 -97 112 -64 19 -114 18 -202 -5z
m504 -321 c-2 -6 -8 -10 -13 -10 -5 0 -11 4 -13 10 -2 6 4 11 13 11 9 0 15 -5
13 -11z m2 -104 c0 -8 -4 -15 -9 -15 -13 0 -22 16 -14 24 11 11 23 6 23 -9z
m478 -250 c30 -70 38 -94 27 -84 -11 12 -74 159 -67 159 4 0 22 -34 40 -75z"/>
<path d="M1181 1343 c-1 -6 -4 -20 -7 -30 -5 -17 -5 -17 6 0 6 10 9 23 6 30
-3 9 -5 9 -5 0z"/>
<path d="M1621 1324 c0 -11 3 -14 6 -6 3 7 2 16 -1 19 -3 4 -6 -2 -5 -13z"/>
<path d="M1535 1314 c8 -30 -38 -82 -93 -106 -37 -17 -42 -23 -36 -41 22 -72
66 -114 109 -103 18 5 27 17 36 49 12 46 5 180 -12 206 -8 13 -9 11 -4 -5z"/>
<path d="M1164 1237 c11 -82 25 -124 52 -157 32 -37 62 -38 97 -2 21 22 57 88
57 105 0 3 -18 7 -39 11 -22 3 -70 26 -106 51 l-68 45 7 -53z"/>
<path d="M2141 1085 c18 -25 40 -51 48 -58 8 -7 -5 14 -28 46 -51 68 -67 77
-20 12z"/>
<path d="M2230 970 c17 -22 34 -40 37 -40 2 0 -10 18 -27 40 -17 22 -34 40
-37 40 -2 0 10 -18 27 -40z"/>
<path d="M2270 916 c0 -2 8 -10 18 -17 15 -13 16 -12 3 4 -13 16 -21 21 -21
13z"/>
<path d="M2356 798 c60 -87 91 -125 59 -73 -28 48 -106 155 -111 155 -2 0 21
-37 52 -82z"/>
<path d="M2440 670 c6 -11 13 -20 16 -20 2 0 0 9 -6 20 -6 11 -13 20 -16 20
-2 0 0 -9 6 -20z"/>
<path d="M2500 555 c0 -5 5 -17 10 -25 5 -8 10 -10 10 -5 0 6 -5 17 -10 25 -5
8 -10 11 -10 5z"/>
<path d="M113 470 c0 -36 2 -50 4 -32 2 17 2 47 0 65 -2 17 -4 3 -4 -33z"/>
<path d="M583 523 c9 -2 23 -2 30 0 6 3 -1 5 -18 5 -16 0 -22 -2 -12 -5z"/>
<path d="M505 510 c-25 -11 1 -11 35 0 20 6 21 8 5 8 -11 0 -29 -3 -40 -8z"/>
<path d="M2541 434 c0 -11 3 -14 6 -6 3 7 2 16 -1 19 -3 4 -6 -2 -5 -13z"/>
<path d="M2553 345 c0 -33 2 -45 4 -27 2 18 2 45 0 60 -2 15 -4 0 -4 -33z"/>
<path d="M121 374 c0 -11 3 -14 6 -6 3 7 2 16 -1 19 -3 4 -6 -2 -5 -13z"/>
<path d="M130 347 c-1 -28 62 -116 108 -150 15 -11 6 2 -19 29 -26 27 -56 67
-67 89 -12 22 -21 36 -22 32z"/>
<path d="M2541 264 c0 -11 3 -14 6 -6 3 7 2 16 -1 19 -3 4 -6 -2 -5 -13z"/>
<path d="M1630 226 c0 -2 7 -7 16 -10 8 -3 12 -2 9 4 -6 10 -25 14 -25 6z"/>
<path d="M2476 142 c-36 -42 -36 -44 -7 -17 28 25 58 66 49 65 -2 -1 -21 -22
-42 -48z"/>
<path d="M270 175 c0 -7 61 -37 66 -33 2 3 -12 12 -31 21 -19 9 -35 15 -35 12z"/>
<path d="M1620 156 c0 -3 9 -10 20 -16 11 -6 20 -8 20 -6 0 3 -9 10 -20 16
-11 6 -20 8 -20 6z"/>
<path d="M388 123 c7 -3 16 -2 19 1 4 3 -2 6 -13 5 -11 0 -14 -3 -6 -6z"/>
<path d="M1700 95 c19 -19 36 -35 39 -35 3 0 -10 16 -29 35 -19 19 -36 35 -39
35 -3 0 10 -16 29 -35z"/>
<path d="M428 113 c6 -2 18 -2 25 0 6 3 1 5 -13 5 -14 0 -19 -2 -12 -5z"/>
<path d="M1593 88 c45 -24 57 -36 54 -50 -4 -13 0 -18 16 -17 12 0 16 3 10 6
-7 2 -13 11 -13 19 0 13 -95 74 -115 74 -5 0 16 -15 48 -32z"/>
<path d="M488 103 c12 -2 30 -2 40 0 9 3 -1 5 -23 4 -22 0 -30 -2 -17 -4z"/>
<path d="M983 103 c48 -2 126 -2 175 0 48 1 8 3 -88 3 -96 0 -136 -2 -87 -3z"/>
<path d="M2100 106 c0 -3 9 -10 20 -16 11 -6 20 -8 20 -6 0 3 -9 10 -20 16
-11 6 -20 8 -20 6z"/>
<path d="M653 93 c26 -2 67 -2 90 0 23 2 2 3 -48 3 -49 0 -68 -1 -42 -3z"/>
<path d="M1283 93 c9 -2 23 -2 30 0 6 3 -1 5 -18 5 -16 0 -22 -2 -12 -5z"/>
<path d="M2400 85 c-14 -8 -20 -14 -14 -15 5 0 19 7 30 15 24 18 16 19 -16 0z"/>
<path d="M1338 83 c7 -3 16 -2 19 1 4 3 -2 6 -13 5 -11 0 -14 -3 -6 -6z"/>
<path d="M1378 73 c7 -3 16 -2 19 1 4 3 -2 6 -13 5 -11 0 -14 -3 -6 -6z"/>
<path d="M2160 70 c8 -5 22 -9 30 -9 10 0 8 3 -5 9 -27 12 -43 12 -25 0z"/>
<path d="M1455 50 c11 -5 27 -9 35 -9 9 0 8 4 -5 9 -11 5 -27 9 -35 9 -9 0 -8
-4 5 -9z"/>
<path d="M2237 53 c18 -2 50 -2 70 0 21 2 7 4 -32 4 -38 0 -55 -2 -38 -4z"/>
<path d="M1741 34 c0 -11 3 -14 6 -6 3 7 2 16 -1 19 -3 4 -6 -2 -5 -13z"/>
<path d="M1548 23 c7 -3 16 -2 19 1 4 3 -2 6 -13 5 -11 0 -14 -3 -6 -6z"/>
<path d="M1598 13 c6 -2 18 -2 25 0 6 3 1 5 -13 5 -14 0 -19 -2 -12 -5z"/>
<path d="M1698 13 c6 -2 18 -2 25 0 6 3 1 5 -13 5 -14 0 -19 -2 -12 -5z"/>
</g>
</svg>
